<svg xmlns="http://www.w3.org/2000/svg" style="display: none;">
  <!-- Mobile Icon -->
  <symbol id="icon-mobile" viewBox="0 0 24 24">
    <rect x="6" y="2" width="12" height="20" rx="2" fill="none" stroke="currentColor" stroke-width="2"/>
    <line x1="10" y1="18" x2="14" y2="18" stroke="currentColor" stroke-width="2" stroke-linecap="round"/>
    <circle cx="12" cy="7" r="1.5" fill="currentColor"/>
  </symbol>

  <!-- AI/Robot Icon -->
  <symbol id="icon-ai" viewBox="0 0 24 24">
    <rect x="5" y="6" width="14" height="12" rx="2" fill="none" stroke="currentColor" stroke-width="2"/>
    <circle cx="9" cy="11" r="1.5" fill="currentColor"/>
    <circle cx="15" cy="11" r="1.5" fill="currentColor"/>
    <path d="M9 15h6" stroke="currentColor" stroke-width="2" stroke-linecap="round"/>
    <path d="M3 10l2-2m14 0l2 2M7 4l5-2 5 2" stroke="currentColor" stroke-width="2" stroke-linecap="round"/>
  </symbol>

  <!-- Gear/Custom Solutions Icon -->
  <symbol id="icon-gear" viewBox="0 0 24 24">
    <path d="M12 15a3 3 0 1 0 0-6 3 3 0 0 0 0 6z" fill="none" stroke="currentColor" stroke-width="2"/>
    <path d="M19.4 15a1.65 1.65 0 0 0 .33 1.82l.06.06a2 2 0 0 1 0 2.83 2 2 0 0 1-2.83 0l-.06-.06a1.65 1.65 0 0 0-1.82-.33 1.65 1.65 0 0 0-1 1.51V21a2 2 0 0 1-2 2 2 2 0 0 1-2-2v-.09A1.65 1.65 0 0 0 9 19.4a1.65 1.65 0 0 0-1.82.33l-.06.06a2 2 0 0 1-2.83 0 2 2 0 0 1 0-2.83l.06-.06a1.65 1.65 0 0 0 .33-1.82 1.65 1.65 0 0 0-1.51-1H3a2 2 0 0 1-2-2 2 2 0 0 1 2-2h.09A1.65 1.65 0 0 0 4.6 9a1.65 1.65 0 0 0-.33-1.82l-.06-.06a2 2 0 0 1 0-2.83 2 2 0 0 1 2.83 0l.06.06a1.65 1.65 0 0 0 1.82.33H9a1.65 1.65 0 0 0 1-1.51V3a2 2 0 0 1 2-2 2 2 0 0 1 2 2v.09a1.65 1.65 0 0 0 1 1.51 1.65 1.65 0 0 0 1.82-.33l.06-.06a2 2 0 0 1 2.83 0 2 2 0 0 1 0 2.83l-.06.06a1.65 1.65 0 0 0-.33 1.82V9a1.65 1.65 0 0 0 1.51 1H21a2 2 0 0 1 2 2 2 2 0 0 1-2 2h-.09a1.65 1.65 0 0 0-1.51 1z" fill="none" stroke="currentColor" stroke-width="2"/>
  </symbol>

  <!-- Target/Vision Icon -->
  <symbol id="icon-target" viewBox="0 0 24 24">
    <circle cx="12" cy="12" r="10" fill="none" stroke="currentColor" stroke-width="2"/>
    <circle cx="12" cy="12" r="6" fill="none" stroke="currentColor" stroke-width="2"/>
    <circle cx="12" cy="12" r="2" fill="currentColor"/>
  </symbol>

  <!-- Rocket/Mission Icon -->
  <symbol id="icon-rocket" viewBox="0 0 24 24">
    <path d="M4.5 16.5c-1.5 1.26-2 5-2 5s3.74-.5 5-2c.71-.84.7-2.13-.09-2.91a2.18 2.18 0 0 0-2.91-.09z" fill="none" stroke="currentColor" stroke-width="2"/>
    <path d="m12 15-3-3a22 22 0 0 1 2-3.95A12.88 12.88 0 0 1 22 2c0 2.72-.78 7.5-6 11a22.35 22.35 0 0 1-4 2z" fill="none" stroke="currentColor" stroke-width="2"/>
    <path d="M9 12H4s.55-3.03 2-4c1.62-1.08 5 0 5 0" fill="none" stroke="currentColor" stroke-width="2"/>
    <path d="M12 15v5s3.03-.55 4-2c1.08-1.62 0-5 0-5" fill="none" stroke="currentColor" stroke-width="2"/>
  </symbol>

  <!-- Diamond/Values Icon -->
  <symbol id="icon-diamond" viewBox="0 0 24 24">
    <path d="M6 3h12l4 6-10 12L2 9z" fill="none" stroke="currentColor" stroke-width="2"/>
    <path d="M6 3l6 18 6-18M6 3l6 6 6-6" fill="none" stroke="currentColor" stroke-width="2"/>
  </symbol>

  <!-- Star/Experience Icon -->
  <symbol id="icon-star" viewBox="0 0 24 24">
    <polygon points="12 2 15.09 8.26 22 9.27 17 14.14 18.18 21.02 12 17.77 5.82 21.02 7 14.14 2 9.27 8.91 8.26 12 2" fill="none" stroke="currentColor" stroke-width="2"/>
  </symbol>

  <!-- Team Icon -->
  <symbol id="icon-team" viewBox="0 0 24 24">
    <path d="M17 21v-2a4 4 0 0 0-4-4H5a4 4 0 0 0-4 4v2" fill="none" stroke="currentColor" stroke-width="2"/>
    <circle cx="9" cy="7" r="4" fill="none" stroke="currentColor" stroke-width="2"/>
    <path d="M23 21v-2a4 4 0 0 0-3-3.87" fill="none" stroke="currentColor" stroke-width="2"/>
    <path d="M16 3.13a4 4 0 0 1 0 7.75" fill="none" stroke="currentColor" stroke-width="2"/>
  </symbol>

  <!-- Design/Custom Icon -->
  <symbol id="icon-design" viewBox="0 0 24 24">
    <path d="M12 2L2 7l10 5 10-5-10-5z" fill="none" stroke="currentColor" stroke-width="2"/>
    <path d="M2 17l10 5 10-5" fill="none" stroke="currentColor" stroke-width="2"/>
    <path d="M2 12l10 5 10-5" fill="none" stroke="currentColor" stroke-width="2"/>
  </symbol>

  <!-- Security Icon -->
  <symbol id="icon-security" viewBox="0 0 24 24">
    <path d="M12 22s8-4 8-10V5l-8-3-8 3v7c0 6 8 10 8 10z" fill="none" stroke="currentColor" stroke-width="2"/>
    <path d="M9 12l2 2 4-4" fill="none" stroke="currentColor" stroke-width="2" stroke-linecap="round"/>
  </symbol>

  <!-- Speed/Lightning Icon -->
  <symbol id="icon-speed" viewBox="0 0 24 24">
    <polygon points="13 2 3 14 12 14 11 22 21 10 12 10 13 2" fill="none" stroke="currentColor" stroke-width="2"/>
  </symbol>

  <!-- Support/Handshake Icon -->
  <symbol id="icon-support" viewBox="0 0 24 24">
    <path d="M11 12h2a2 2 0 1 0 0-4h-3c-.6 0-1.1.2-1.4.6L3 14" fill="none" stroke="currentColor" stroke-width="2"/>
    <path d="M7 18h1a2 2 0 0 0 0-4H5c-.6 0-1.1.2-1.4.6L3 18" fill="none" stroke="currentColor" stroke-width="2"/>
    <path d="M22 12h-2a2 2 0 1 1 0-4h3c.6 0 1.1.2 1.4.6L21 14" fill="none" stroke="currentColor" stroke-width="2"/>
    <path d="M17 18h-1a2 2 0 0 1 0-4h3c.6 0 1.1.2 1.4.6L21 18" fill="none" stroke="currentColor" stroke-width="2"/>
  </symbol>

  <!-- Search/Analysis Icon -->
  <symbol id="icon-search" viewBox="0 0 24 24">
    <circle cx="11" cy="11" r="8" fill="none" stroke="currentColor" stroke-width="2"/>
    <path d="m21 21-4.35-4.35" fill="none" stroke="currentColor" stroke-width="2" stroke-linecap="round"/>
  </symbol>

  <!-- Check/Testing Icon -->
  <symbol id="icon-check" viewBox="0 0 24 24">
    <path d="M22 11.08V12a10 10 0 1 1-5.93-9.14" fill="none" stroke="currentColor" stroke-width="2"/>
    <polyline points="22 4 12 14.01 9 11.01" fill="none" stroke="currentColor" stroke-width="2" stroke-linecap="round"/>
  </symbol>

  <!-- Analytics Icon -->
  <symbol id="icon-analytics" viewBox="0 0 24 24">
    <line x1="18" y1="20" x2="18" y2="10" stroke="currentColor" stroke-width="2"/>
    <line x1="12" y1="20" x2="12" y2="4" stroke="currentColor" stroke-width="2"/>
    <line x1="6" y1="20" x2="6" y2="14" stroke="currentColor" stroke-width="2"/>
  </symbol>

  <!-- Frontend/Laptop Icon -->
  <symbol id="icon-laptop" viewBox="0 0 24 24">
    <rect x="2" y="4" width="20" height="12" rx="2" fill="none" stroke="currentColor" stroke-width="2"/>
    <line x1="2" y1="16" x2="22" y2="16" stroke="currentColor" stroke-width="2"/>
    <line x1="6" y1="20" x2="18" y2="20" stroke="currentColor" stroke-width="2"/>
  </symbol>

  <!-- Database Icon -->
  <symbol id="icon-database" viewBox="0 0 24 24">
    <ellipse cx="12" cy="5" rx="9" ry="3" fill="none" stroke="currentColor" stroke-width="2"/>
    <path d="M21 12c0 1.66-4 3-9 3s-9-1.34-9-3" fill="none" stroke="currentColor" stroke-width="2"/>
    <path d="M3 5v14c0 1.66 4 3 9 3s9-1.34 9-3V5" fill="none" stroke="currentColor" stroke-width="2"/>
  </symbol>

  <!-- Cloud Icon -->
  <symbol id="icon-cloud" viewBox="0 0 24 24">
    <path d="M18 10h-1.26A8 8 0 1 0 9 20h9a5 5 0 0 0 0-10z" fill="none" stroke="currentColor" stroke-width="2"/>
  </symbol>

  <!-- Email Icon -->
  <symbol id="icon-email" viewBox="0 0 24 24">
    <path d="M4 4h16c1.1 0 2 .9 2 2v12c0 1.1-.9 2-2 2H4c-1.1 0-2-.9-2-2V6c0-1.1.9-2 2-2z" fill="none" stroke="currentColor" stroke-width="2"/>
    <polyline points="22,6 12,13 2,6" fill="none" stroke="currentColor" stroke-width="2"/>
  </symbol>

  <!-- Location Icon -->
  <symbol id="icon-location" viewBox="0 0 24 24">
    <path d="M21 10c0 7-9 13-9 13s-9-6-9-13a9 9 0 0 1 18 0z" fill="none" stroke="currentColor" stroke-width="2"/>
    <circle cx="12" cy="10" r="3" fill="none" stroke="currentColor" stroke-width="2"/>
  </symbol>
</svg>

