<svg xmlns="http://www.w3.org/2000/svg" viewBox="0 0 200 200" width="200" height="200">
  <defs>
    <linearGradient id="grad1" x1="0%" y1="0%" x2="100%" y2="100%">
      <stop offset="0%" style="stop-color:#2563eb;stop-opacity:1" />
      <stop offset="100%" style="stop-color:#10b981;stop-opacity:1" />
    </linearGradient>
  </defs>
  
  <!-- Background Circle -->
  <circle cx="100" cy="100" r="95" fill="url(#grad1)" opacity="0.15"/>
  
  <!-- Main G Icon -->
  <g transform="translate(100, 100)">
    <!-- Outer Ring -->
    <circle cx="0" cy="0" r="70" fill="none" stroke="url(#grad1)" stroke-width="8" opacity="0.8"/>
    
    <!-- Gene/Matrix Pattern -->
    <g stroke="url(#grad1)" stroke-width="4" fill="none" opacity="0.9">
      <!-- Connecting Lines -->
      <line x1="-40" y1="-30" x2="40" y2="-30"/>
      <line x1="-40" y1="0" x2="40" y2="0"/>
      <line x1="-40" y1="30" x2="40" y2="30"/>
      
      <!-- Vertical Lines -->
      <line x1="-40" y1="-40" x2="-40" y2="40"/>
      <line x1="0" y1="-40" x2="0" y2="40"/>
      <line x1="40" y1="-40" x2="40" y2="40"/>
      
      <!-- Nodes -->
      <circle cx="-40" cy="-30" r="5" fill="url(#grad1)"/>
      <circle cx="0" cy="-30" r="5" fill="url(#grad1)"/>
      <circle cx="40" cy="-30" r="5" fill="url(#grad1)"/>
      
      <circle cx="-40" cy="0" r="5" fill="url(#grad1)"/>
      <circle cx="0" cy="0" r="7" fill="url(#grad1)"/>
      <circle cx="40" cy="0" r="5" fill="url(#grad1)"/>
      
      <circle cx="-40" cy="30" r="5" fill="url(#grad1)"/>
      <circle cx="0" cy="30" r="5" fill="url(#grad1)"/>
      <circle cx="40" cy="30" r="5" fill="url(#grad1)"/>
    </g>
    
    <!-- G Letter -->
    <path d="M -25 -25 Q -25 -40, -10 -40 L 10 -40 Q 25 -40, 25 -25 L 25 -10 Q 25 5, 10 5 L -10 5 Q -25 5, -25 -10 L -25 -25 Z M -10 -15 L -10 -25 L 10 -25 L 10 -15 L -10 -15 Z" 
          fill="url(#grad1)" opacity="0.9"/>
  </g>
  
  <!-- Accent Elements -->
  <circle cx="160" cy="40" r="8" fill="#f59e0b" opacity="0.8"/>
  <circle cx="40" cy="160" r="6" fill="#f59e0b" opacity="0.6"/>
</svg>

