<svg xmlns="http://www.w3.org/2000/svg" style="display: none;">
  <defs>
    <linearGradient id="grad-icon" x1="0%" y1="0%" x2="100%" y2="100%">
      <stop offset="0%" style="stop-color:#2563eb;stop-opacity:1" />
      <stop offset="100%" style="stop-color:#10b981;stop-opacity:1" />
    </linearGradient>
  </defs>
  
  <!-- Vision Icon - Target/Bullseye -->
  <symbol id="icon-vision" viewBox="0 0 100 100">
    <circle cx="50" cy="50" r="45" fill="none" stroke="url(#grad-icon)" stroke-width="3"/>
    <circle cx="50" cy="50" r="30" fill="none" stroke="url(#grad-icon)" stroke-width="2.5"/>
    <circle cx="50" cy="50" r="15" fill="url(#grad-icon)"/>
    <path d="M 50 15 L 50 30 M 50 70 L 50 85 M 15 50 L 30 50 M 70 50 L 85 50" stroke="url(#grad-icon)" stroke-width="3" stroke-linecap="round"/>
  </symbol>
  
  <!-- Mission Icon - Light Bulb -->
  <symbol id="icon-mission" viewBox="0 0 100 100">
    <path d="M 50 15 Q 35 15, 35 30 Q 35 40, 40 45 Q 40 50, 45 55 L 45 65 Q 45 70, 50 70 Q 55 70, 55 65 L 55 55 Q 60 50, 60 45 Q 65 40, 65 30 Q 65 15, 50 15 Z" fill="url(#grad-icon)"/>
    <rect x="45" y="70" width="10" height="8" rx="2" fill="url(#grad-icon)"/>
    <rect x="42" y="78" width="16" height="3" rx="1" fill="url(#grad-icon)"/>
    <circle cx="50" cy="35" r="5" fill="white" opacity="0.8"/>
  </symbol>
  
  <!-- Mobile Icon - Smartphone -->
  <symbol id="icon-mobile" viewBox="0 0 100 100">
    <rect x="28" y="12" width="44" height="76" rx="6" fill="url(#grad-icon)"/>
    <rect x="33" y="22" width="34" height="50" rx="2" fill="white" opacity="0.15"/>
    <rect x="45" y="18" width="10" height="2" rx="1" fill="white" opacity="0.6"/>
    <circle cx="50" cy="78" r="3" fill="white" opacity="0.8"/>
    <rect x="40" y="82" width="20" height="2" rx="1" fill="white" opacity="0.6"/>
  </symbol>
  
  <!-- AI Icon - Neural Network/Brain -->
  <symbol id="icon-ai" viewBox="0 0 100 100">
    <circle cx="50" cy="50" r="38" fill="none" stroke="url(#grad-icon)" stroke-width="2.5"/>
    <circle cx="35" cy="40" r="6" fill="url(#grad-icon)"/>
    <circle cx="65" cy="40" r="6" fill="url(#grad-icon)"/>
    <circle cx="50" cy="50" r="8" fill="url(#grad-icon)"/>
    <circle cx="30" cy="60" r="5" fill="url(#grad-icon)"/>
    <circle cx="70" cy="60" r="5" fill="url(#grad-icon)"/>
    <path d="M 35 40 L 50 50 M 65 40 L 50 50 M 30 60 L 50 50 M 70 60 L 50 50 M 35 40 L 30 60 M 65 40 L 70 60" stroke="url(#grad-icon)" stroke-width="2" opacity="0.6"/>
  </symbol>
  
  <!-- Custom Icon - Grid/Puzzle -->
  <symbol id="icon-custom" viewBox="0 0 100 100">
    <rect x="15" y="15" width="30" height="30" rx="3" fill="url(#grad-icon)"/>
    <rect x="55" y="15" width="30" height="30" rx="3" fill="url(#grad-icon)" opacity="0.8"/>
    <rect x="15" y="55" width="30" height="30" rx="3" fill="url(#grad-icon)" opacity="0.8"/>
    <rect x="55" y="55" width="30" height="30" rx="3" fill="url(#grad-icon)" opacity="0.6"/>
    <path d="M 45 15 L 45 45 M 15 45 L 45 45 M 55 15 L 55 45 M 55 45 L 85 45 M 15 55 L 45 55 M 45 55 L 45 85 M 55 55 L 55 85 M 55 55 L 85 55" stroke="white" stroke-width="2" opacity="0.3"/>
  </symbol>
  
  <!-- Rocket Icon -->
  <symbol id="icon-rocket" viewBox="0 0 100 100">
    <path d="M 50 10 L 42 55 L 50 65 L 58 55 Z" fill="url(#grad-icon)"/>
    <circle cx="50" cy="30" r="6" fill="white" opacity="0.9"/>
    <path d="M 50 65 L 38 82 M 50 65 L 62 82" stroke="url(#grad-icon)" stroke-width="4" stroke-linecap="round"/>
    <path d="M 42 55 L 35 50 M 58 55 L 65 50" stroke="url(#grad-icon)" stroke-width="3" stroke-linecap="round"/>
  </symbol>
  
  <!-- Code Icon -->
  <symbol id="icon-code" viewBox="0 0 100 100">
    <rect x="20" y="30" width="60" height="40" rx="3" fill="url(#grad-icon)" opacity="0.2"/>
    <path d="M 30 50 L 20 40 L 30 30 M 70 50 L 80 40 L 70 30" stroke="url(#grad-icon)" stroke-width="4" stroke-linecap="round" stroke-linejoin="round"/>
    <path d="M 40 25 L 60 75" stroke="url(#grad-icon)" stroke-width="4" stroke-linecap="round"/>
    <circle cx="50" cy="50" r="3" fill="url(#grad-icon)"/>
  </symbol>
  
  <!-- Lightning Icon -->
  <symbol id="icon-lightning" viewBox="0 0 100 100">
    <path d="M 50 10 L 32 50 L 50 50 L 42 90 L 68 50 L 50 50 Z" fill="url(#grad-icon)"/>
    <path d="M 50 10 L 32 50 L 50 50" fill="white" opacity="0.3"/>
  </symbol>
  
  <!-- Email Icon -->
  <symbol id="icon-email" viewBox="0 0 100 100">
    <rect x="18" y="22" width="64" height="56" rx="4" fill="none" stroke="url(#grad-icon)" stroke-width="3.5"/>
    <path d="M 18 22 L 50 50 L 82 22" stroke="url(#grad-icon)" stroke-width="3.5" stroke-linecap="round" stroke-linejoin="round"/>
    <path d="M 18 78 L 35 55 M 82 78 L 65 55" stroke="url(#grad-icon)" stroke-width="2" opacity="0.5"/>
  </symbol>
  
  <!-- Phone Icon -->
  <symbol id="icon-phone" viewBox="0 0 100 100">
    <path d="M 28 18 Q 28 12, 34 12 L 46 12 Q 52 12, 52 18 L 52 82 Q 52 88, 46 88 L 34 88 Q 28 88, 28 82 Z" fill="url(#grad-icon)"/>
    <rect x="32" y="20" width="20" height="30" rx="2" fill="white" opacity="0.2"/>
    <circle cx="40" cy="68" r="2.5" fill="white" opacity="0.8"/>
    <rect x="35" y="75" width="10" height="2" rx="1" fill="white" opacity="0.6"/>
  </symbol>
  
  <!-- Location Icon -->
  <symbol id="icon-location" viewBox="0 0 100 100">
    <path d="M 50 15 Q 32 15, 32 35 Q 32 50, 50 75 Q 68 50, 68 35 Q 68 15, 50 15 Z" fill="url(#grad-icon)"/>
    <circle cx="50" cy="35" r="10" fill="white" opacity="0.9"/>
    <circle cx="50" cy="35" r="5" fill="url(#grad-icon)"/>
  </symbol>
</svg>

